X Lossless Decoder version 20181019 (151.1)

XLD extraction logfile from 2019-07-19 16:39:16 +0200

 / Die Drei ??? - Folge 200 - Feuriges Auge - CD4

Used drive : ASUS BW-16D1HT (revision 3.01)
Media type : Pressed CD

Ripper mode             : XLD Secure Ripper
Disable audio cache     : OK for the drive with a cache less than 1375KiB
Make use of C2 pointers : NO
Read offset correction  : 6
Max retry count         : 40
Gap status              : Analyzed, Appended

TOC of the extracted CD
     Track |   Start  |  Length  | Start sector | End sector 
    ---------------------------------------------------------
        1  | 00:00:00 | 12:05:37 |         0    |    54411   
        2  | 12:05:37 | 11:49:08 |     54412    |   107594   
        3  | 23:54:45 | 15:27:53 |    107595    |   177172   
        4  | 39:22:23 | 08:27:24 |    177173    |   215221   
        5  | 47:49:47 | 17:22:52 |    215222    |   293423   
        6  | 65:12:24 | 12:22:71 |    293424    |   349144   

AccurateRip Summary
    Disc not found in AccurateRip DB.

All Tracks
    Filename : ~/Projects/Audiobooks/_temp/Die Drei ??? - Folge 200 - Feuriges Auge - CD4.m4a
    CRC32 hash               : 6CE3BE20
    CRC32 hash (skip zero)   : 0817719F
    Statistics
        Read error                           : 0
        Jitter error (maybe fixed)           : 0
        Retry sector count                   : 0
        Damaged sector count                 : 0

Track 01
    Pre-gap length : 00:02:00

    CRC32 hash               : 29755544
    CRC32 hash (skip zero)   : A3881685
    AccurateRip v1 signature : 64FFAA58
    AccurateRip v2 signature : 41A7651C
        ->Track not present in AccurateRip database.
    Statistics
        Read error                           : 0
        Jitter error (maybe fixed)           : 0
        Retry sector count                   : 0
        Damaged sector count                 : 0

Track 02

    CRC32 hash               : ECE5B0C3
    CRC32 hash (skip zero)   : D4571DCA
    AccurateRip v1 signature : 952E17E2
    AccurateRip v2 signature : 15FB4EE9
        ->Track not present in AccurateRip database.
    Statistics
        Read error                           : 0
        Jitter error (maybe fixed)           : 0
        Retry sector count                   : 0
        Damaged sector count                 : 0

Track 03

    CRC32 hash               : 6211DDFF
    CRC32 hash (skip zero)   : D5558409
    AccurateRip v1 signature : B42FCB2B
    AccurateRip v2 signature : F2261338
        ->Track not present in AccurateRip database.
    Statistics
        Read error                           : 0
        Jitter error (maybe fixed)           : 0
        Retry sector count                   : 0
        Damaged sector count                 : 0

Track 04

    CRC32 hash               : 40F44103
    CRC32 hash (skip zero)   : 0EB667BA
    AccurateRip v1 signature : 6EC35E90
    AccurateRip v2 signature : A5C1F0B2
        ->Track not present in AccurateRip database.
    Statistics
        Read error                           : 0
        Jitter error (maybe fixed)           : 0
        Retry sector count                   : 0
        Damaged sector count                 : 0

Track 05

    CRC32 hash               : AAFD87B6
    CRC32 hash (skip zero)   : B0089FD9
    AccurateRip v1 signature : 8031B758
    AccurateRip v2 signature : CC614373
        ->Track not present in AccurateRip database.
    Statistics
        Read error                           : 0
        Jitter error (maybe fixed)           : 0
        Retry sector count                   : 0
        Damaged sector count                 : 0

Track 06

    CRC32 hash               : 0932C164
    CRC32 hash (skip zero)   : 1494B38E
    AccurateRip v1 signature : 6C8DEDCB
    AccurateRip v2 signature : 67224245
        ->Track not present in AccurateRip database.
    Statistics
        Read error                           : 0
        Jitter error (maybe fixed)           : 0
        Retry sector count                   : 0
        Damaged sector count                 : 0

No errors occurred

End of status report
